<svg aria-hidden="true" style="position: absolute; width: 0; height: 0; overflow: hidden;" version="1.1" xmlns="http://www.w3.org/2000/svg" xmlns:xlink="http://www.w3.org/1999/xlink">
<defs>

<symbol id="icon-instagram" viewBox="0 0 32 32">
<path d="M31.969 9.408c-0.075-1.7-0.35-2.869-0.744-3.882-0.406-1.075-1.031-2.038-1.85-2.838-0.8-0.813-1.769-1.444-2.832-1.844-1.019-0.394-2.182-0.669-3.882-0.744-1.713-0.081-2.257-0.1-6.601-0.1s-4.888 0.019-6.595 0.094c-1.7 0.075-2.869 0.35-3.882 0.744-1.075 0.406-2.038 1.031-2.838 1.85-0.813 0.8-1.444 1.769-1.844 2.832-0.394 1.019-0.669 2.182-0.744 3.882-0.081 1.713-0.1 2.257-0.1 6.601s0.019 4.888 0.094 6.595c0.075 1.7 0.35 2.869 0.744 3.882 0.406 1.075 1.038 2.038 1.85 2.838 0.8 0.813 1.769 1.444 2.832 1.844 1.019 0.394 2.182 0.669 3.882 0.744 1.706 0.075 2.25 0.094 6.595 0.094s4.888-0.019 6.595-0.094c1.7-0.075 2.869-0.35 3.882-0.744 2.151-0.832 3.851-2.532 4.682-4.682 0.394-1.019 0.669-2.182 0.744-3.882 0.075-1.707 0.094-2.251 0.094-6.595s-0.006-4.888-0.081-6.595zM29.087 22.473c-0.069 1.563-0.331 2.407-0.55 2.969-0.538 1.394-1.644 2.5-3.038 3.038-0.563 0.219-1.413 0.481-2.969 0.55-1.688 0.075-2.194 0.094-6.464 0.094s-4.782-0.019-6.464-0.094c-1.563-0.069-2.407-0.331-2.969-0.55-0.694-0.256-1.325-0.663-1.838-1.194-0.531-0.519-0.938-1.144-1.194-1.838-0.219-0.563-0.481-1.413-0.55-2.969-0.075-1.688-0.094-2.194-0.094-6.464s0.019-4.782 0.094-6.464c0.069-1.563 0.331-2.407 0.55-2.969 0.256-0.694 0.663-1.325 1.2-1.838 0.519-0.531 1.144-0.938 1.838-1.194 0.563-0.219 1.413-0.481 2.969-0.55 1.688-0.075 2.194-0.094 6.464-0.094 4.276 0 4.782 0.019 6.464 0.094 1.563 0.069 2.407 0.331 2.969 0.55 0.694 0.256 1.325 0.662 1.838 1.194 0.531 0.519 0.938 1.144 1.194 1.838 0.219 0.563 0.481 1.413 0.55 2.969 0.075 1.688 0.094 2.194 0.094 6.464s-0.019 4.77-0.094 6.458z"></path>
<path d="M16.059 7.783c-4.538 0-8.22 3.682-8.22 8.22s3.682 8.22 8.22 8.22c4.539 0 8.22-3.682 8.22-8.22s-3.682-8.22-8.22-8.22zM16.059 21.335c-2.944 0-5.332-2.388-5.332-5.332s2.388-5.332 5.332-5.332c2.944 0 5.332 2.388 5.332 5.332s-2.388 5.332-5.332 5.332z"></path>
<path d="M26.524 7.458c0 1.060-0.859 1.919-1.919 1.919s-1.919-0.859-1.919-1.919c0-1.060 0.859-1.919 1.919-1.919s1.919 0.859 1.919 1.919z"></path>
</symbol>

<symbol id="icon-linkedin" viewBox="0 0 32 32">
<path d="M31.992 32v-0.001h0.008v-11.736c0-5.741-1.236-10.164-7.948-10.164-3.227 0-5.392 1.771-6.276 3.449h-0.093v-2.913h-6.364v21.364h6.627v-10.579c0-2.785 0.528-5.479 3.977-5.479 3.399 0 3.449 3.179 3.449 5.657v10.401h6.62z"></path>
<path d="M0.528 10.636h6.635v21.364h-6.635v-21.364z"></path>
<path d="M3.843 0c-2.121 0-3.843 1.721-3.843 3.843s1.721 3.879 3.843 3.879c2.121 0 3.843-1.757 3.843-3.879-0.001-2.121-1.723-3.843-3.843-3.843v0z"></path>
</symbol>

<symbol id="icon-logo" viewBox="0 0 39 32">
<path d="M22.070 9.734l-0.738-0.577c-0.115-0.096-0.263-0.141-0.411-0.126s-0.284 0.089-0.378 0.206l-10.22 12.013 0.158 0.179 2.531-2.389c-0.084-0.035-0.154-0.099-0.197-0.181s-0.057-0.177-0.039-0.268c0.018-0.091 0.067-0.173 0.138-0.231s0.16-0.089 0.25-0.088c0.082 0 0.162 0.027 0.228 0.077s0.114 0.12 0.139 0.2l3.337-3.168c0.051-0.042 0.115-0.065 0.18-0.065s0.129 0.023 0.18 0.065l0.169 0.127c0.057 0.042 0.128 0.060 0.198 0.052s0.134-0.044 0.18-0.098l4.363-5.008c0.046-0.050 0.082-0.109 0.104-0.174s0.030-0.134 0.024-0.202c-0.006-0.068-0.027-0.135-0.061-0.194s-0.079-0.111-0.134-0.151z"></path>
<path d="M26.872 13.115c-2.237 1.629-4.742 2.831-7.396 3.549-2.634 0.686-5.329 1.096-8.044 1.223 0.055 0.41 0.153 0.812 0.293 1.2 1.533 1.419 13.078-1.004 15.333-3.808 0.479-0.583-0.186-2.164-0.186-2.164zM13.163 19.041c-0.076 0-0.15-0.023-0.213-0.066s-0.112-0.104-0.141-0.176c-0.029-0.072-0.037-0.151-0.022-0.227s0.051-0.146 0.105-0.201c0.054-0.055 0.122-0.092 0.196-0.107s0.151-0.007 0.222 0.022c0.070 0.030 0.13 0.080 0.172 0.145s0.065 0.14 0.065 0.218c0.001 0.052-0.009 0.103-0.028 0.151s-0.047 0.091-0.083 0.128c-0.036 0.037-0.078 0.066-0.125 0.085s-0.097 0.029-0.148 0.028z"></path>
<path d="M2.255 12.284l0.090-0.398 1.466 0.34c0.121 0.229 0.196 0.48 0.22 0.739 0.028 0.274 0.011 0.551-0.051 0.819-0.073 0.372-0.24 0.719-0.485 1.004-0.233 0.27-0.533 0.469-0.868 0.577-0.345 0.109-0.713 0.123-1.065 0.040-0.353-0.078-0.679-0.254-0.941-0.508-0.259-0.244-0.444-0.558-0.536-0.906-0.101-0.378-0.101-0.776 0-1.154 0.061-0.283 0.169-0.552 0.321-0.796 0.144-0.222 0.337-0.406 0.564-0.537l0.203 0.317c-0.194 0.122-0.361 0.285-0.489 0.478s-0.215 0.412-0.255 0.641c-0.070 0.298-0.064 0.61 0.017 0.906 0.076 0.281 0.226 0.534 0.434 0.733 0.214 0.212 0.481 0.358 0.772 0.421 0.282 0.081 0.58 0.081 0.862 0 0.27-0.091 0.513-0.252 0.705-0.467 0.197-0.232 0.333-0.512 0.395-0.814 0.093-0.365 0.069-0.751-0.068-1.102l-1.291-0.335z"></path>
<path d="M5.446 8.655l-1.313 1.794 0.564 1.033-0.259 0.358-2.086-3.895 0.242-0.34 4.245 0.935-0.265 0.358-1.127-0.242zM5.073 8.563l-2.255-0.519 1.127 2.071 1.127-1.552z"></path>
<path d="M5.074 4.933l0.338-0.26 2.148 2.943 1.77-1.356 0.214 0.294-2.103 1.61-2.368-3.231z"></path>
<path d="M8.625 2.527l0.378-0.173 1.488 3.335 2.012-0.935 0.147 0.335-2.39 1.114-1.635-3.675z"></path>
<path d="M16.055 3.854l0.085 0.364-2.717 0.652-0.902-3.935 2.638-0.629 0.079 0.358-2.255 0.537 0.321 1.396 1.984-0.479 0.085 0.358-1.99 0.473 0.338 1.46 2.334-0.554z"></path>
<path d="M19.927 3.999l-0.941-1.269c-0.105 0.006-0.21 0.006-0.316 0l-1.060 0.035 0.040 1.281h-0.417l-0.13-4.039 1.5-0.006c0.424-0.040 0.848 0.077 1.195 0.329 0.146 0.121 0.264 0.274 0.344 0.448s0.12 0.364 0.118 0.556c0.016 0.285-0.057 0.568-0.209 0.808-0.162 0.23-0.391 0.402-0.654 0.49l0.986 1.35-0.457 0.017zM19.533 2.1c0.101-0.095 0.18-0.213 0.23-0.344s0.070-0.272 0.058-0.412c0.003-0.141-0.026-0.281-0.083-0.408s-0.143-0.241-0.249-0.33c-0.26-0.18-0.572-0.264-0.885-0.237l-1.071 0.040 0.068 2.019 1.049-0.035c0.32 0.012 0.633-0.092 0.885-0.294z"></path>
<path d="M22.91 2.925l-0.203 1.379-0.412-0.063 0.209-1.356-1.167-2.885 0.44 0.069 0.998 2.458 1.691-2.037 0.395 0.087-1.95 2.348z"></path>
<path d="M28.485 2.683l0.49 0.652-0.214 0.173-0.49-0.669-0.31 0.756-0.237-0.104 0.316-0.756-0.812 0.11v-0.277l0.8-0.092-0.496-0.652 0.22-0.173 0.434 0.658 0.304-0.762 0.242 0.104-0.288 0.773 0.812-0.115v0.283l-0.772 0.092z"></path>
<path d="M30.368 7.333c-0.133-0.21-0.216-0.449-0.242-0.698l0.333-0.15c0.025 0.229 0.098 0.449 0.214 0.646 0.126 0.221 0.29 0.417 0.485 0.577 0.201 0.197 0.457 0.324 0.733 0.363 0.1 0.009 0.2-0.006 0.292-0.045s0.174-0.101 0.238-0.18c0.047-0.053 0.082-0.115 0.105-0.182s0.031-0.139 0.025-0.21c-0.019-0.141-0.065-0.276-0.135-0.398-0.106-0.177-0.221-0.348-0.344-0.514-0.15-0.201-0.286-0.413-0.406-0.635-0.092-0.166-0.142-0.352-0.147-0.542-0-0.214 0.078-0.42 0.22-0.577 0.123-0.152 0.285-0.266 0.468-0.329 0.204-0.060 0.421-0.060 0.626 0 0.263 0.088 0.507 0.229 0.716 0.415 0.174 0.148 0.327 0.319 0.457 0.508 0.12 0.176 0.209 0.371 0.265 0.577l-0.321 0.173c-0.056-0.192-0.14-0.375-0.248-0.542-0.108-0.149-0.235-0.283-0.378-0.398-0.198-0.196-0.454-0.32-0.727-0.352-0.101-0.009-0.202 0.008-0.294 0.050s-0.174 0.105-0.236 0.187c-0.048 0.052-0.084 0.114-0.107 0.182s-0.030 0.14-0.023 0.211c0.013 0.146 0.060 0.286 0.135 0.41 0.079 0.133 0.192 0.306 0.344 0.514 0.151 0.197 0.287 0.405 0.406 0.623 0.094 0.165 0.146 0.351 0.152 0.542 0 0.214-0.078 0.42-0.22 0.577-0.123 0.154-0.288 0.269-0.474 0.329-0.204 0.063-0.422 0.063-0.626 0-0.265-0.088-0.51-0.229-0.722-0.415-0.228-0.203-0.418-0.445-0.564-0.716z"></path>
<path d="M36.038 8.176l-0.795-1.154 0.293-0.213 1.832 2.677-0.293 0.213-0.795-1.154-2.943 2.106-0.237-0.352 2.937-2.123z"></path>
<path d="M34.776 12.919c0.101-0.349 0.296-0.661 0.564-0.9 0.262-0.24 0.581-0.405 0.925-0.479 0.351-0.082 0.716-0.068 1.060 0.040 0.332 0.112 0.629 0.311 0.862 0.577 0.243 0.286 0.408 0.632 0.479 1.004 0.093 0.365 0.093 0.748 0 1.114-0.103 0.347-0.298 0.659-0.564 0.9-0.269 0.246-0.596 0.417-0.948 0.496s-0.719 0.063-1.064-0.046c-0.334-0.107-0.633-0.307-0.862-0.577-0.242-0.284-0.407-0.629-0.479-0.998-0.086-0.373-0.076-0.763 0.028-1.131zM35.514 14.754c0.188 0.219 0.432 0.381 0.705 0.467 0.281 0.083 0.578 0.093 0.863 0.029s0.551-0.201 0.771-0.398c0.208-0.196 0.362-0.445 0.445-0.721 0.079-0.292 0.086-0.599 0.022-0.895s-0.197-0.571-0.389-0.802c-0.197-0.22-0.448-0.382-0.727-0.467-0.284-0.077-0.584-0.077-0.868 0-0.287 0.056-0.553 0.194-0.767 0.398-0.21 0.197-0.364 0.448-0.445 0.727-0.077 0.293-0.077 0.601 0 0.894 0.062 0.286 0.196 0.551 0.389 0.767z"></path>
<path d="M34.347 19.618l1.46-0.577c0-0.104 0.034-0.208 0.062-0.317l0.276-1.044-1.195-0.317 0.107-0.41 3.811 1.044-0.383 1.46c-0.086 0.426-0.318 0.806-0.654 1.073-0.154 0.11-0.331 0.181-0.517 0.209s-0.375 0.012-0.554-0.048c-0.272-0.060-0.516-0.214-0.691-0.435s-0.272-0.497-0.273-0.782l-1.556 0.577 0.107-0.433zM36.236 19.779c0.066 0.123 0.156 0.23 0.263 0.317s0.231 0.149 0.364 0.186 0.27 0.044 0.406 0.025c0.135-0.020 0.266-0.068 0.382-0.14 0.249-0.205 0.419-0.493 0.479-0.814l0.271-1.039-1.911-0.525-0.271 1.039c-0.104 0.309-0.098 0.647 0.017 0.952z"></path>
<path d="M32.324 23.334l-0.288-0.225 1.691-2.279 3.146 2.441-1.635 2.21-0.288-0.225 1.381-1.864-1.127-0.871-1.234 1.668-0.282-0.219 1.263-1.668-1.167-0.906-1.46 1.939z"></path>
<path d="M31.005 27.932l-0.806 0.046v-0.277l0.806-0.006-0.434-0.687 0.22-0.144 0.428 0.692 0.349-0.773 0.242 0.133-0.383 0.727 0.806-0.046v0.283h-0.817l0.434 0.687-0.22 0.144-0.428-0.692-0.372 0.75-0.237-0.139 0.412-0.698z"></path>
<path d="M23.676 27.471l0.682 0.387c0.114-0.225 0.274-0.422 0.468-0.579s0.419-0.27 0.659-0.332c0.224-0.072 0.46-0.097 0.693-0.075 0.203 0.016 0.398 0.088 0.564 0.208 0.15 0.116 0.261 0.277 0.316 0.462 0.068 0.228 0.056 0.473-0.034 0.692-0.141 0.299-0.332 0.57-0.564 0.802 0.186 0.102 0.358 0.228 0.513 0.375 0.106 0.112 0.186 0.249 0.231 0.398 0.029 0.116 0.031 0.238 0.005 0.355s-0.078 0.227-0.152 0.32c-0.15 0.222-0.375 0.38-0.631 0.444-0.225 0.088-0.474 0.088-0.699 0-0.1-0.044-0.189-0.111-0.259-0.196s-0.121-0.186-0.147-0.294c-0.059-0.19-0.045-0.397 0.039-0.577 0.129-0.262 0.299-0.502 0.502-0.71l-1.359-0.773c-0.052 0.272-0.063 0.55-0.034 0.825h-0.344c-0.023-0.339 0.015-0.679 0.113-1.004l-0.71-0.404 0.147-0.323zM24.657 28.048l1.494 0.848c0.196-0.191 0.358-0.416 0.479-0.664 0.062-0.167 0.062-0.352 0-0.519-0.026-0.1-0.075-0.192-0.144-0.267s-0.155-0.132-0.251-0.165c-0.234-0.081-0.488-0.081-0.722 0-0.191 0.052-0.369 0.146-0.521 0.275s-0.274 0.292-0.358 0.475l0.023 0.017zM26.777 30.356c0.037-0.064 0.060-0.135 0.068-0.208s0-0.148-0.023-0.218c-0.035-0.114-0.097-0.217-0.18-0.3-0.143-0.124-0.3-0.23-0.468-0.317-0.171 0.173-0.32 0.367-0.445 0.577-0.068 0.131-0.084 0.284-0.045 0.427 0.018 0.066 0.049 0.127 0.092 0.18s0.096 0.096 0.156 0.126c0.144 0.055 0.302 0.055 0.445 0 0.153-0.042 0.287-0.138 0.378-0.271l0.023 0.006z"></path>
<path d="M16.804 31.919l0.079-4.039h0.4l-0.062 3.231 1.601-2.689h0.197l1.5 2.735 0.056-3.214h0.4l-0.073 4.039h-0.344l-1.657-3.018-1.753 2.96-0.344-0.006z"></path>
<path d="M14.843 27.696c0.258 0.252 0.442 0.571 0.533 0.924s0.084 0.724-0.020 1.073c-0.093 0.357-0.278 0.682-0.536 0.941-0.251 0.252-0.565 0.428-0.908 0.508-0.361 0.084-0.738 0.072-1.094-0.035-0.355-0.089-0.681-0.27-0.947-0.525-0.254-0.248-0.435-0.564-0.524-0.912-0.087-0.36-0.080-0.736 0.019-1.092s0.287-0.68 0.545-0.939c0.246-0.252 0.554-0.431 0.891-0.519 0.36-0.083 0.734-0.071 1.088 0.035 0.358 0.093 0.687 0.28 0.953 0.542zM12.92 27.494c-0.276 0.066-0.528 0.21-0.727 0.415-0.208 0.212-0.356 0.477-0.428 0.767-0.079 0.289-0.079 0.594 0 0.883 0.066 0.281 0.209 0.537 0.412 0.739 0.212 0.212 0.474 0.365 0.761 0.444 0.287 0.075 0.587 0.075 0.874 0 0.276-0.069 0.529-0.213 0.733-0.415 0.207-0.213 0.354-0.477 0.428-0.767 0.079-0.291 0.079-0.598 0-0.889-0.072-0.28-0.216-0.535-0.417-0.739-0.213-0.213-0.478-0.364-0.767-0.439-0.284-0.080-0.584-0.080-0.868 0z"></path>
<path d="M8.653 24.811l0.152 1.587c0.097 0.042 0.191 0.090 0.282 0.144l0.919 0.542 0.62-1.119 0.366 0.213-1.973 3.479-1.285-0.756c-0.38-0.195-0.68-0.523-0.846-0.923-0.061-0.18-0.082-0.373-0.060-0.563s0.085-0.372 0.184-0.534c0.131-0.253 0.339-0.455 0.592-0.577 0.257-0.109 0.541-0.131 0.812-0.064l-0.164-1.696 0.4 0.265zM8.010 26.634c-0.132 0.034-0.257 0.095-0.366 0.179s-0.2 0.19-0.268 0.311c-0.068 0.121-0.111 0.255-0.127 0.394s-0.005 0.279 0.034 0.414c0.132 0.299 0.361 0.541 0.648 0.687l0.908 0.537 0.986-1.731-0.908-0.537c-0.261-0.2-0.582-0.3-0.908-0.283v0.029z"></path>
<path d="M5.316 22.105l0.254-0.26 1.945 2.048-2.819 2.816-1.877-1.985 0.259-0.26 1.595 1.679 0.964-0.998-1.398-1.489 0.271-0.265 1.426 1.5 1.049-1.044-1.669-1.742z"></path>
<path d="M1.127 19.837l0.135-0.796 0.265 0.040-0.152 0.819 0.75-0.283 0.090 0.254-0.761 0.265 0.626 0.542-0.18 0.208-0.603-0.577-0.141 0.819-0.271-0.052 0.158-0.819-0.755 0.277-0.085-0.225 0.755-0.271-0.626-0.537 0.186-0.208 0.609 0.542z"></path>
</symbol>

<symbol id="icon-mail" viewBox="0 0 32 32">
<path fill="none" stroke="#9da4bd" style="stroke: var(--color2, #9da4bd)" stroke-linejoin="round" stroke-linecap="round" stroke-miterlimit="4" stroke-width="1.3333" d="M6.4 6.667h19.2c1.32 0 2.4 1.050 2.4 2.333v14c0 1.283-1.080 2.333-2.4 2.333h-19.2c-1.32 0-2.4-1.050-2.4-2.333v-14c0-1.283 1.080-2.333 2.4-2.333z"></path>
<path fill="none" stroke="#9da4bd" style="stroke: var(--color2, #9da4bd)" stroke-linejoin="round" stroke-linecap="round" stroke-miterlimit="4" stroke-width="1.3333" d="M26.667 9.333l-10.667 8-10.667-8"></path>
</symbol>

<symbol id="icon-map-pin" viewBox="0 0 32 32">
<path fill="none" stroke="#9da4bd" style="stroke: var(--color2, #9da4bd)" stroke-linejoin="round" stroke-linecap="round" stroke-miterlimit="4" stroke-width="1.3333" d="M26.667 13.818c0 7.636-10.667 14.182-10.667 14.182s-10.667-6.545-10.667-14.182c0-5.422 4.776-9.818 10.667-9.818s10.667 4.396 10.667 9.818v0z"></path>
<path fill="none" stroke="#9da4bd" style="stroke: var(--color2, #9da4bd)" stroke-linejoin="round" stroke-linecap="round" stroke-miterlimit="4" stroke-width="1.3333" d="M16 18.667c2.209 0 4-1.791 4-4s-1.791-4-4-4-4 1.791-4 4c0 2.209 1.791 4 4 4z"></path>
</symbol>

<symbol id="icon-phone" viewBox="0 0 32 32">
<path fill="none" stroke="#9da4bd" style="stroke: var(--color2, #9da4bd)" stroke-linejoin="round" stroke-linecap="round" stroke-miterlimit="4" stroke-width="1.3333" d="M26.666 21.337v3.218c0.002 0.604-0.25 1.181-0.695 1.589s-1.042 0.61-1.643 0.556c-3.301-0.359-6.471-1.487-9.257-3.293-2.592-1.647-4.789-3.844-6.436-6.436-1.813-2.798-2.941-5.984-3.293-9.3-0.054-0.6 0.146-1.195 0.552-1.639s0.98-0.698 1.582-0.699h3.218c1.077-0.011 1.995 0.779 2.145 1.845 0.136 1.030 0.388 2.041 0.751 3.014 0.295 0.784 0.106 1.668-0.483 2.263l-1.362 1.362c1.527 2.685 3.75 4.909 6.436 6.436l1.362-1.362c0.596-0.589 1.479-0.777 2.263-0.483 0.973 0.363 1.984 0.615 3.014 0.751 1.079 0.152 1.872 1.088 1.845 2.177z"></path>
</symbol>

<symbol id="icon-twitter" viewBox="0 0 32 32">
<path d="M32 6.078c-1.19 0.522-2.458 0.868-3.78 1.036 1.36-0.812 2.398-2.088 2.886-3.626-1.268 0.756-2.668 1.29-4.16 1.588-1.204-1.282-2.92-2.076-4.792-2.076-3.632 0-6.556 2.948-6.556 6.562 0 0.52 0.044 1.020 0.152 1.496-5.454-0.266-10.28-2.88-13.522-6.862-0.566 0.982-0.898 2.106-0.898 3.316 0 2.272 1.17 4.286 2.914 5.452-1.054-0.020-2.088-0.326-2.964-0.808 0 0.020 0 0.046 0 0.072 0 3.188 2.274 5.836 5.256 6.446-0.534 0.146-1.116 0.216-1.72 0.216-0.42 0-0.844-0.024-1.242-0.112 0.85 2.598 3.262 4.508 6.13 4.57-2.232 1.746-5.066 2.798-8.134 2.798-0.538 0-1.054-0.024-1.57-0.090 2.906 1.874 6.35 2.944 10.064 2.944 12.072 0 18.672-10 18.672-18.668 0-0.29-0.010-0.57-0.024-0.848 1.302-0.924 2.396-2.078 3.288-3.406z"></path>
</symbol>

<symbol id="icon-facebook" viewBox="0 0 32 32">
<path d="M21.329 5.313h2.921v-5.088c-0.504-0.069-2.237-0.225-4.256-0.225-4.212 0-7.097 2.649-7.097 7.519v4.481h-4.648v5.688h4.648v14.312h5.699v-14.311h4.46l0.708-5.688h-5.169v-3.919c0.001-1.644 0.444-2.769 2.735-2.769z"></path>
</symbol>

<symbol id="icon-close" viewBox="0 0 32 32">
<path d="M26.667 7.303l-1.97-1.97-7.808 7.808-7.808-7.808-1.97 1.97 7.808 7.808-7.808 7.808 1.97 1.97 7.808-7.808 7.808 7.808 1.97-1.97-7.808-7.808 7.808-7.808z"></path>
</symbol>

<symbol id="icon-check" viewBox="0 0 24 24">
<path d="M9 16.172l10.594-10.594 1.406 1.406-12 12-5.578-5.578 1.406-1.406z"></path>
</symbol>

<symbol id="icon-burger" viewBox="0 0 32 32">
<path d="M6.4 11.733v-2.133h19.2v2.133h-19.2zM6.4 17.067h19.2v-2.133h-19.2v2.133zM6.4 22.4h19.2v-2.133h-19.2v2.133z"></path>
</symbol>

</defs>
</svg>
